8_US_stride5.mot
nRows=155
nColumns=3

name 8_US_stride5.mot
datacolumns 3
datarows 155
range 2.460000 3.230000
endheader
time	soleus_l	med_gas_l
        2.4600000000	       34.1565321954	       37.5593389627	
        2.4650000000	       33.9379372308	       37.4712087860	
        2.4700000000	       33.6352652307	       37.3114243795	
        2.4750000000	       33.3335832617	       37.0549660826	
        2.4800000000	       33.1513860965	       36.7002081463	
        2.4850000000	       33.0973070090	       36.2444818977	
        2.4900000000	       33.2683278098	       35.7310707547	
        2.4950000000	       33.5214754303	       35.3339683955	
        2.5000000000	       33.8965546994	       34.9370659204	
        2.5050000000	       34.4233749985	       34.5233174220	
        2.5100000000	       34.9314447711	       34.2120663697	
        2.5150000000	       35.3440609076	       33.9912507471	
        2.5200000000	       35.5547231122	       33.8570102917	
        2.5250000000	       35.6312038234	       33.7394330716	
        2.5300000000	       35.5982809795	       33.5704391210	
        2.5350000000	       35.4188926131	       33.3612284601	
        2.5400000000	       35.1269348875	       33.1033558877	
        2.5450000000	       34.7522652048	       32.8073602002	
        2.5500000000	       34.3824567222	       32.5373821206	
        2.5550000000	       34.0826191112	       32.3331737964	
        2.5600000000	       33.6807865751	       32.0761898870	
        2.5650000000	       33.2648168095	       31.8187427034	
        2.5700000000	       32.9151611804	       31.5921399095	
        2.5750000000	       32.6484430777	       31.3877463839	
        2.5800000000	       32.4687735780	       31.1959600164	
        2.5850000000	       32.3902880913	       31.0575424408	
        2.5900000000	       32.3326764150	       30.9051280398	
        2.5950000000	       32.2772925452	       30.7058191060	
        2.6000000000	       32.2049748792	       30.4937381707	
        2.6050000000	       32.0881973568	       30.2588420052	
        2.6100000000	       31.9337805088	       30.0241600753	
        2.6150000000	       31.7846258715	       29.8370685159	
        2.6200000000	       31.6486074600	       29.6887698554	
        2.6250000000	       31.4785183314	       29.5266694437	
        2.6300000000	       31.3154777316	       29.3980733664	
        2.6350000000	       31.1487482528	       29.2951485260	
        2.6400000000	       30.9802955357	       29.2143499032	
        2.6450000000	       30.8214962214	       29.1526823500	
        2.6500000000	       30.5464964816	       29.0616726484	
        2.6550000000	       30.1400701970	       28.9460562315	
        2.6600000000	       29.6211310837	       28.8109364275	
        2.6650000000	       29.0077195137	       28.6492396261	
        2.6700000000	       28.3358192406	       28.4465971948	
        2.6750000000	       27.8369434557	       28.2614420172	
        2.6800000000	       27.3136728345	       28.0227035539	
        2.6850000000	       26.7067848275	       27.6743008656	
        2.6900000000	       26.1775929366	       27.3123802178	
        2.6950000000	       25.6565872389	       26.9568568189	
        2.7000000000	       25.0941162576	       26.6491163194	
        2.7050000000	       24.5873809315	       26.4595710711	
        2.7100000000	       24.1234952396	       26.3473258754	
        2.7150000000	       23.4669470408	       26.2646490849	
        2.7200000000	       22.8032048908	       26.2359115103	
        2.7250000000	       22.2332007263	       26.2249790461	
        2.7300000000	       21.8056052665	       26.2147164410	
        2.7350000000	       21.5585618591	       26.1992022499	
        2.7400000000	       21.4835800279	       26.1918731176	
        2.7450000000	       21.5084072236	       26.2029285948	
        2.7500000000	       21.6547694482	       26.2634551115	
        2.7550000000	       21.8870493731	       26.3939103723	
        2.7600000000	       22.1713329364	       26.6064080800	
        2.7650000000	       22.4800048275	       26.8854813595	
        2.7700000000	       22.7343561884	       27.1335917079	
        2.7750000000	       22.9866379032	       27.3781871888	
        2.7800000000	       23.3313336370	       27.6820846399	
        2.7850000000	       23.6957573702	       27.9427463852	
        2.7900000000	       24.0755263632	       28.1463290303	
        2.7950000000	       24.4020013155	       28.2770721302	
        2.8000000000	       24.6878243231	       28.3675378005	
        2.8050000000	       25.0605386842	       28.4686598403	
        2.8100000000	       25.4519312837	       28.5776666153	
        2.8150000000	       25.8555935315	       28.7052359942	
        2.8200000000	       26.2739405924	       28.8534590707	
        2.8250000000	       26.6822792953	       29.0002923443	
        2.8300000000	       26.9982833919	       29.1055779697	
        2.8350000000	       27.3619681661	       29.1881242998	
        2.8400000000	       27.7656762543	       29.2170857288	
        2.8450000000	       28.1288686725	       29.1644056618	
        2.8500000000	       28.4138810631	       29.0265946669	
        2.8550000000	       28.6388723216	       28.8563908910	
        2.8600000000	       28.7866592312	       28.7296278908	
        2.8650000000	       28.9183171164	       28.6597750853	
        2.8700000000	       29.1003781463	       28.6418361118	
        2.8750000000	       29.3199791449	       28.7364963489	
        2.8800000000	       29.6165606823	       28.9254448870	
        2.8850000000	       29.9885193199	       29.1583999549	
        2.8900000000	       30.3781365020	       29.3578266468	
        2.8950000000	       30.7209675791	       29.4919396998	
        2.9000000000	       31.1534168020	       29.5834013808	
        2.9050000000	       31.5595408410	       29.5895246876	
        2.9100000000	       31.8678379298	       29.5336680154	
        2.9150000000	       32.0691201870	       29.4361640787	
        2.9200000000	       32.1619499031	       29.3651071288	
        2.9250000000	       32.2025502670	       29.3178972396	
        2.9300000000	       32.2093484199	       29.3091924385	
        2.9350000000	       32.1897341005	       29.3739220571	
        2.9400000000	       32.1820882817	       29.5046225830	
        2.9450000000	       32.2172495763	       29.6738800773	
        2.9500000000	       32.2798068400	       29.8148426245	
        2.9550000000	       32.3743808305	       29.9468462506	
        2.9600000000	       32.5344128136	       30.1033138402	
        2.9650000000	       32.7085243062	       30.2336918173	
        2.9700000000	       32.8584771560	       30.3386545493	
        2.9750000000	       32.9635663078	       30.4338257819	
        2.9800000000	       33.0205101102	       30.5202658386	
        2.9850000000	       33.0464762636	       30.5946384138	
        2.9900000000	       33.0911477946	       30.7112763893	
        2.9950000000	       33.1835257228	       30.8634821608	
        3.0000000000	       33.3702293871	       31.0308240355	
        3.0050000000	       33.6838600519	       31.1977463252	
        3.0100000000	       34.1105956867	       31.3346733646	
        3.0150000000	       34.4702084024	       31.3941467876	
        3.0200000000	       34.8746947693	       31.4069778660	
        3.0250000000	       35.3826160768	       31.3550404775	
        3.0300000000	       35.8016258208	       31.2274364452	
        3.0350000000	       36.1309768753	       31.0677975241	
        3.0400000000	       36.3681254889	       30.9198728832	
        3.0450000000	       36.5091333441	       30.8565831674	
        3.0500000000	       36.6013752489	       30.8375070821	
        3.0550000000	       36.7199776607	       30.9007274138	
        3.0600000000	       36.8633628248	       31.0455320017	
        3.0650000000	       37.0456148030	       31.2563429156	
        3.0700000000	       37.2461091551	       31.4769989288	
        3.0750000000	       37.4211230084	       31.6579376133	
        3.0800000000	       37.6438572960	       31.8971795098	
        3.0850000000	       37.8541289157	       32.1778320678	
        3.0900000000	       38.0064005516	       32.5073161709	
        3.0950000000	       38.0892883213	       32.9456431112	
        3.1000000000	       38.1013794207	       33.4957251560	
        3.1050000000	       38.0764887139	       33.9868291585	
        3.1100000000	       38.0175122644	       34.5854963746	
        3.1150000000	       37.9131235888	       35.4378145932	
        3.1200000000	       37.7778376798	       36.3355329011	
        3.1250000000	       37.6049500304	       37.2069838165	
        3.1300000000	       37.3745810069	       38.0283298558	
        3.1350000000	       37.1337950520	       38.6170434304	
        3.1400000000	       36.8983628119	       39.0104068815	
        3.1450000000	       36.5536688491	       39.3573930285	
        3.1500000000	       36.1924429846	       39.4728254091	
        3.1550000000	       35.8513344764	       39.4614596011	
        3.1600000000	       35.5503059390	       39.3558467980	
        3.1650000000	       35.3208042674	       39.2717502271	
        3.1700000000	       35.1978494062	       39.2713348736	
        3.1750000000	       35.1090996231	       39.3164099823	
        3.1800000000	       35.0694860558	       39.5214597836	
        3.1850000000	       35.0652784532	       39.8013670248	
        3.1900000000	       35.0687415674	       40.1085008468	
        3.1950000000	       35.0509001942	       40.3060592802	
        3.2000000000	       34.9996150785	       40.4333555736	
        3.2050000000	       34.8704303152	       40.4960500565	
        3.2100000000	       34.6677390613	       40.3897829727	
        3.2150000000	       34.4390032401	       40.1528316514	
        3.2200000000	       34.2138203731	       39.8159822692	
        3.2250000000	       34.0451015715	       39.4811320255	
        3.2300000000	       33.9334839832	       39.1949212971	
